# Blender 4.4.3
# www.blender.org
mtllib spheretri.mtl
o Sphere
v 0.181636 0.951057 -0.250000
v 0.345491 0.809017 -0.475528
v 0.475528 0.587785 -0.654509
v 0.559017 0.309017 -0.769421
v 0.587785 0.000000 -0.809017
v 0.559017 -0.309017 -0.769421
v 0.475528 -0.587785 -0.654509
v 0.345491 -0.809017 -0.475528
v 0.181636 -0.951057 -0.250000
v 0.293893 0.951057 -0.095492
v 0.559017 0.809017 -0.181636
v 0.769421 0.587785 -0.250000
v 0.904509 0.309017 -0.293893
v 0.951057 0.000000 -0.309017
v 0.904509 -0.309017 -0.293893
v 0.769421 -0.587785 -0.250000
v 0.559017 -0.809017 -0.181636
v 0.293893 -0.951057 -0.095492
v 0.293893 0.951057 0.095491
v 0.559017 0.809017 0.181636
v 0.769421 0.587785 0.250000
v 0.904509 0.309017 0.293893
v 0.951057 0.000000 0.309017
v 0.904509 -0.309017 0.293893
v 0.769421 -0.587785 0.250000
v 0.559017 -0.809017 0.181636
v 0.293893 -0.951057 0.095491
v 0.181636 0.951057 0.250000
v 0.345492 0.809017 0.475528
v 0.475528 0.587785 0.654508
v 0.559017 0.309017 0.769421
v 0.587785 0.000000 0.809017
v 0.559017 -0.309017 0.769421
v 0.475528 -0.587785 0.654508
v 0.345492 -0.809017 0.475528
v 0.181636 -0.951057 0.250000
v 0.000000 0.951057 0.309017
v 0.000000 0.809017 0.587785
v 0.000000 0.587785 0.809017
v 0.000000 0.309017 0.951057
v 0.000000 0.000000 1.000000
v 0.000000 -0.309017 0.951057
v 0.000000 -0.587785 0.809017
v 0.000000 -0.809017 0.587785
v 0.000000 -0.951057 0.309017
v 0.000000 1.000000 0.000000
v -0.181636 0.951057 0.250000
v -0.345491 0.809017 0.475528
v -0.475528 0.587785 0.654509
v -0.559017 0.309017 0.769421
v -0.587785 0.000000 0.809017
v -0.559017 -0.309017 0.769421
v -0.475528 -0.587785 0.654509
v -0.345491 -0.809017 0.475528
v -0.181636 -0.951057 0.250000
v -0.293893 0.951057 0.095492
v -0.559017 0.809017 0.181636
v -0.769421 0.587785 0.250000
v -0.904508 0.309017 0.293893
v -0.951057 0.000000 0.309017
v -0.904508 -0.309017 0.293893
v -0.769421 -0.587785 0.250000
v -0.559017 -0.809017 0.181636
v -0.293893 -0.951057 0.095492
v 0.000000 -1.000000 0.000000
v -0.293893 0.951057 -0.095491
v -0.559017 0.809017 -0.181636
v -0.769421 0.587785 -0.250000
v -0.904509 0.309017 -0.293893
v -0.951057 0.000000 -0.309017
v -0.904509 -0.309017 -0.293893
v -0.769421 -0.587785 -0.250000
v -0.559017 -0.809017 -0.181636
v -0.293893 -0.951057 -0.095491
v -0.181636 0.951057 -0.250000
v -0.345492 0.809017 -0.475528
v -0.475528 0.587785 -0.654508
v -0.559017 0.309017 -0.769421
v -0.587785 0.000000 -0.809017
v -0.559017 -0.309017 -0.769421
v -0.475528 -0.587785 -0.654508
v -0.345492 -0.809017 -0.475528
v -0.181636 -0.951057 -0.250000
v -0.000000 0.951057 -0.309017
v -0.000000 0.809017 -0.587785
v -0.000000 0.587785 -0.809017
v -0.000000 0.309017 -0.951056
v -0.000000 0.000000 -1.000000
v -0.000000 -0.309017 -0.951056
v -0.000000 -0.587785 -0.809017
v -0.000000 -0.809017 -0.587785
v -0.000000 -0.951057 -0.309017
vn 0.0508 0.9864 -0.1562
vn 0.2239 -0.6892 -0.6892
vn 0.3056 0.1490 -0.9404
vn 0.1459 0.8815 -0.4491
vn 0.1459 -0.8815 -0.4491
vn 0.3056 -0.1490 -0.9404
vn 0.2239 0.6892 -0.6892
vn 0.0508 -0.9864 -0.1562
vn 0.2781 -0.4361 -0.8559
vn 0.2781 0.4361 -0.8559
vn 0.5862 -0.6892 -0.4259
vn 0.8000 0.1490 -0.5812
vn 0.3821 0.8815 -0.2776
vn 0.3821 -0.8815 -0.2776
vn 0.8000 -0.1490 -0.5812
vn 0.5862 0.6892 -0.4259
vn 0.1329 -0.9864 -0.0966
vn 0.7280 -0.4361 -0.5290
vn 0.7280 0.4361 -0.5290
vn 0.1329 0.9864 -0.0966
vn 0.8999 0.4361 -0.0000
vn 0.1643 0.9864 -0.0000
vn 0.7246 -0.6892 -0.0000
vn 0.9888 0.1490 -0.0000
vn 0.4722 0.8815 -0.0000
vn 0.4722 -0.8815 -0.0000
vn 0.9888 -0.1490 -0.0000
vn 0.7246 0.6892 -0.0000
vn 0.1643 -0.9864 -0.0000
vn 0.8999 -0.4361 -0.0000
vn 0.7280 -0.4361 0.5290
vn 0.7280 0.4361 0.5290
vn 0.1329 0.9864 0.0966
vn 0.5862 -0.6892 0.4259
vn 0.8000 0.1490 0.5812
vn 0.3821 0.8815 0.2776
vn 0.3821 -0.8815 0.2776
vn 0.8000 -0.1490 0.5812
vn 0.5862 0.6892 0.4259
vn 0.1329 -0.9864 0.0966
vn 0.2239 0.6892 0.6892
vn 0.0508 -0.9864 0.1562
vn 0.2781 -0.4361 0.8559
vn 0.2781 0.4361 0.8559
vn 0.0508 0.9864 0.1562
vn 0.2239 -0.6892 0.6892
vn 0.3056 0.1490 0.9404
vn 0.1459 0.8815 0.4491
vn 0.1459 -0.8815 0.4491
vn 0.3056 -0.1490 0.9404
vn -0.1459 -0.8815 0.4491
vn -0.3056 -0.1490 0.9404
vn -0.2239 0.6892 0.6892
vn -0.0508 -0.9864 0.1562
vn -0.2781 -0.4361 0.8559
vn -0.2781 0.4361 0.8559
vn -0.0508 0.9864 0.1562
vn -0.2239 -0.6892 0.6892
vn -0.3056 0.1490 0.9404
vn -0.1459 0.8815 0.4491
vn -0.8000 0.1490 0.5812
vn -0.3821 0.8815 0.2776
vn -0.3821 -0.8815 0.2776
vn -0.8000 -0.1490 0.5812
vn -0.5862 0.6892 0.4259
vn -0.1329 -0.9864 0.0966
vn -0.7280 -0.4361 0.5290
vn -0.7280 0.4361 0.5290
vn -0.1329 0.9864 0.0966
vn -0.5862 -0.6892 0.4259
vn -0.1643 0.9864 -0.0000
vn -0.7246 -0.6892 -0.0000
vn -0.9888 0.1490 -0.0000
vn -0.4722 0.8815 -0.0000
vn -0.4722 -0.8815 -0.0000
vn -0.9888 -0.1490 -0.0000
vn -0.7246 0.6892 -0.0000
vn -0.1643 -0.9864 -0.0000
vn -0.8999 -0.4361 -0.0000
vn -0.8999 0.4361 -0.0000
vn -0.7280 0.4361 -0.5290
vn -0.1329 0.9864 -0.0966
vn -0.5862 -0.6892 -0.4259
vn -0.8000 0.1490 -0.5812
vn -0.3821 0.8815 -0.2776
vn -0.3821 -0.8815 -0.2776
vn -0.8000 -0.1490 -0.5812
vn -0.5862 0.6892 -0.4259
vn -0.1329 -0.9864 -0.0966
vn -0.7280 -0.4361 -0.5290
vn -0.0508 -0.9864 -0.1562
vn -0.2781 -0.4361 -0.8559
vn -0.2781 0.4361 -0.8559
vn -0.0508 0.9864 -0.1562
vn -0.2239 -0.6892 -0.6892
vn -0.3056 0.1490 -0.9404
vn -0.1459 0.8815 -0.4491
vn -0.1459 -0.8815 -0.4491
vn -0.3056 -0.1490 -0.9404
vn -0.2239 0.6892 -0.6892
vt 0.700000 0.900000
vt 0.650000 1.000000
vt 0.600000 0.900000
vt 0.700000 0.300000
vt 0.600000 0.200000
vt 0.700000 0.200000
vt 0.700000 0.600000
vt 0.600000 0.500000
vt 0.700000 0.500000
vt 0.600000 0.800000
vt 0.700000 0.800000
vt 0.700000 0.100000
vt 0.600000 0.100000
vt 0.600000 0.400000
vt 0.700000 0.400000
vt 0.700000 0.700000
vt 0.600000 0.700000
vt 0.650000 0.000000
vt 0.600000 0.300000
vt 0.600000 0.600000
vt 0.500000 0.200000
vt 0.500000 0.600000
vt 0.500000 0.500000
vt 0.500000 0.900000
vt 0.500000 0.800000
vt 0.500000 0.100000
vt 0.500000 0.400000
vt 0.500000 0.700000
vt 0.550000 0.000000
vt 0.500000 0.300000
vt 0.550000 1.000000
vt 0.400000 0.600000
vt 0.450000 1.000000
vt 0.400000 0.900000
vt 0.400000 0.200000
vt 0.400000 0.500000
vt 0.400000 0.800000
vt 0.400000 0.100000
vt 0.400000 0.400000
vt 0.400000 0.700000
vt 0.450000 0.000000
vt 0.400000 0.300000
vt 0.300000 0.300000
vt 0.300000 0.600000
vt 0.350000 1.000000
vt 0.300000 0.900000
vt 0.300000 0.200000
vt 0.300000 0.500000
vt 0.300000 0.800000
vt 0.300000 0.100000
vt 0.300000 0.400000
vt 0.300000 0.700000
vt 0.350000 0.000000
vt 0.200000 0.700000
vt 0.250000 0.000000
vt 0.200000 0.100000
vt 0.200000 0.300000
vt 0.200000 0.600000
vt 0.250000 1.000000
vt 0.200000 0.900000
vt 0.200000 0.200000
vt 0.200000 0.500000
vt 0.200000 0.800000
vt 0.200000 0.400000
vt 0.100000 0.200000
vt 0.100000 0.100000
vt 0.100000 0.400000
vt 0.100000 0.800000
vt 0.100000 0.700000
vt 0.150000 0.000000
vt 0.100000 0.300000
vt 0.100000 0.600000
vt 0.150000 1.000000
vt 0.100000 0.900000
vt 0.100000 0.500000
vt 0.000000 0.500000
vt 0.000000 0.800000
vt 0.000000 0.200000
vt 0.000000 0.100000
vt 0.000000 0.400000
vt 0.000000 0.700000
vt 0.050000 0.000000
vt 0.000000 0.300000
vt 0.000000 0.600000
vt 0.050000 1.000000
vt 0.000000 0.900000
vt 1.000000 0.900000
vt 0.950000 1.000000
vt 0.900000 0.900000
vt 1.000000 0.300000
vt 0.900000 0.200000
vt 1.000000 0.200000
vt 1.000000 0.500000
vt 0.900000 0.600000
vt 0.900000 0.500000
vt 0.900000 0.800000
vt 1.000000 0.800000
vt 1.000000 0.100000
vt 0.900000 0.100000
vt 0.900000 0.400000
vt 1.000000 0.400000
vt 1.000000 0.700000
vt 0.900000 0.700000
vt 0.950000 0.000000
vt 0.900000 0.300000
vt 1.000000 0.600000
vt 0.800000 0.600000
vt 0.850000 1.000000
vt 0.800000 0.900000
vt 0.800000 0.200000
vt 0.800000 0.500000
vt 0.800000 0.800000
vt 0.800000 0.100000
vt 0.800000 0.400000
vt 0.800000 0.700000
vt 0.850000 0.000000
vt 0.800000 0.300000
vt 0.750000 0.000000
vt 0.750000 1.000000
s 0
f 84/1/1 46/2/1 1/3/1
f 90/4/2 8/5/2 91/6/2
f 87/7/3 5/8/3 88/9/3
f 84/1/4 2/10/4 85/11/4
f 92/12/5 8/5/5 9/13/5
f 88/9/6 6/14/6 89/15/6
f 86/16/7 2/10/7 3/17/7
f 65/18/8 92/12/8 9/13/8
f 89/15/9 7/19/9 90/4/9
f 87/7/10 3/17/10 4/20/10
f 7/19/11 17/21/11 8/5/11
f 5/8/12 13/22/12 14/23/12
f 2/10/13 10/24/13 11/25/13
f 8/5/14 18/26/14 9/13/14
f 5/8/15 15/27/15 6/14/15
f 3/17/16 11/25/16 12/28/16
f 65/29/17 9/13/17 18/26/17
f 6/14/18 16/30/18 7/19/18
f 4/20/19 12/28/19 13/22/19
f 1/3/20 46/31/20 10/24/20
f 12/28/21 22/32/21 13/22/21
f 10/24/22 46/33/22 19/34/22
f 16/30/23 26/35/23 17/21/23
f 13/22/24 23/36/24 14/23/24
f 10/24/25 20/37/25 11/25/25
f 18/26/26 26/35/26 27/38/26
f 14/23/27 24/39/27 15/27/27
f 11/25/28 21/40/28 12/28/28
f 65/41/29 18/26/29 27/38/29
f 15/27/30 25/42/30 16/30/30
f 24/39/31 34/43/31 25/42/31
f 21/40/32 31/44/32 22/32/32
f 19/34/33 46/45/33 28/46/33
f 25/42/34 35/47/34 26/35/34
f 23/36/35 31/44/35 32/48/35
f 19/34/36 29/49/36 20/37/36
f 26/35/37 36/50/37 27/38/37
f 23/36/38 33/51/38 24/39/38
f 20/37/39 30/52/39 21/40/39
f 65/53/40 27/38/40 36/50/40
f 29/49/41 39/54/41 30/52/41
f 65/55/42 36/50/42 45/56/42
f 33/51/43 43/57/43 34/43/43
f 31/44/44 39/54/44 40/58/44
f 28/46/45 46/59/45 37/60/45
f 34/43/46 44/61/46 35/47/46
f 32/48/47 40/58/47 41/62/47
f 28/46/48 38/63/48 29/49/48
f 36/50/49 44/61/49 45/56/49
f 32/48/50 42/64/50 33/51/50
f 45/56/51 54/65/51 55/66/51
f 41/62/52 52/67/52 42/64/52
f 39/54/53 48/68/53 49/69/53
f 65/70/54 45/56/54 55/66/54
f 42/64/55 53/71/55 43/57/55
f 40/58/56 49/69/56 50/72/56
f 37/60/57 46/73/57 47/74/57
f 43/57/58 54/65/58 44/61/58
f 40/58/59 51/75/59 41/62/59
f 37/60/60 48/68/60 38/63/60
f 50/72/61 60/76/61 51/75/61
f 47/74/62 57/77/62 48/68/62
f 55/66/63 63/78/63 64/79/63
f 52/67/64 60/76/64 61/80/64
f 48/68/65 58/81/65 49/69/65
f 65/82/66 55/66/66 64/79/66
f 52/67/67 62/83/67 53/71/67
f 49/69/68 59/84/68 50/72/68
f 47/74/69 46/85/69 56/86/69
f 53/71/70 63/78/70 54/65/70
f 56/87/71 46/88/71 66/89/71
f 62/90/72 73/91/72 63/92/72
f 60/93/73 69/94/73 70/95/73
f 56/87/74 67/96/74 57/97/74
f 64/98/75 73/91/75 74/99/75
f 60/93/76 71/100/76 61/101/76
f 58/102/77 67/96/77 68/103/77
f 65/104/78 64/98/78 74/99/78
f 62/90/79 71/100/79 72/105/79
f 58/102/80 69/94/80 59/106/80
f 68/103/81 78/107/81 69/94/81
f 66/89/82 46/108/82 75/109/82
f 72/105/83 82/110/83 73/91/83
f 70/95/84 78/107/84 79/111/84
f 66/89/85 76/112/85 67/96/85
f 74/99/86 82/110/86 83/113/86
f 70/95/87 80/114/87 71/100/87
f 68/103/88 76/112/88 77/115/88
f 65/116/89 74/99/89 83/113/89
f 71/100/90 81/117/90 72/105/90
f 65/118/91 83/113/91 92/12/91
f 80/114/92 90/4/92 81/117/92
f 78/107/93 86/16/93 87/7/93
f 75/109/94 46/119/94 84/1/94
f 81/117/95 91/6/95 82/110/95
f 79/111/96 87/7/96 88/9/96
f 75/109/97 85/11/97 76/112/97
f 83/113/98 91/6/98 92/12/98
f 79/111/99 89/15/99 80/114/99
f 77/115/100 85/11/100 86/16/100
f 90/4/2 7/19/2 8/5/2
f 87/7/3 4/20/3 5/8/3
f 84/1/4 1/3/4 2/10/4
f 92/12/5 91/6/5 8/5/5
f 88/9/6 5/8/6 6/14/6
f 86/16/7 85/11/7 2/10/7
f 89/15/9 6/14/9 7/19/9
f 87/7/10 86/16/10 3/17/10
f 7/19/11 16/30/11 17/21/11
f 5/8/12 4/20/12 13/22/12
f 2/10/13 1/3/13 10/24/13
f 8/5/14 17/21/14 18/26/14
f 5/8/15 14/23/15 15/27/15
f 3/17/16 2/10/16 11/25/16
f 6/14/18 15/27/18 16/30/18
f 4/20/19 3/17/19 12/28/19
f 12/28/21 21/40/21 22/32/21
f 16/30/23 25/42/23 26/35/23
f 13/22/24 22/32/24 23/36/24
f 10/24/25 19/34/25 20/37/25
f 18/26/26 17/21/26 26/35/26
f 14/23/27 23/36/27 24/39/27
f 11/25/28 20/37/28 21/40/28
f 15/27/30 24/39/30 25/42/30
f 24/39/31 33/51/31 34/43/31
f 21/40/32 30/52/32 31/44/32
f 25/42/34 34/43/34 35/47/34
f 23/36/35 22/32/35 31/44/35
f 19/34/36 28/46/36 29/49/36
f 26/35/37 35/47/37 36/50/37
f 23/36/38 32/48/38 33/51/38
f 20/37/39 29/49/39 30/52/39
f 29/49/41 38/63/41 39/54/41
f 33/51/43 42/64/43 43/57/43
f 31/44/44 30/52/44 39/54/44
f 34/43/46 43/57/46 44/61/46
f 32/48/47 31/44/47 40/58/47
f 28/46/48 37/60/48 38/63/48
f 36/50/49 35/47/49 44/61/49
f 32/48/50 41/62/50 42/64/50
f 45/56/51 44/61/51 54/65/51
f 41/62/52 51/75/52 52/67/52
f 39/54/53 38/63/53 48/68/53
f 42/64/55 52/67/55 53/71/55
f 40/58/56 39/54/56 49/69/56
f 43/57/58 53/71/58 54/65/58
f 40/58/59 50/72/59 51/75/59
f 37/60/60 47/74/60 48/68/60
f 50/72/61 59/84/61 60/76/61
f 47/74/62 56/86/62 57/77/62
f 55/66/63 54/65/63 63/78/63
f 52/67/64 51/75/64 60/76/64
f 48/68/65 57/77/65 58/81/65
f 52/67/67 61/80/67 62/83/67
f 49/69/68 58/81/68 59/84/68
f 53/71/70 62/83/70 63/78/70
f 62/90/72 72/105/72 73/91/72
f 60/93/73 59/106/73 69/94/73
f 56/87/74 66/89/74 67/96/74
f 64/98/75 63/92/75 73/91/75
f 60/93/76 70/95/76 71/100/76
f 58/102/77 57/97/77 67/96/77
f 62/90/79 61/101/79 71/100/79
f 58/102/80 68/103/80 69/94/80
f 68/103/81 77/115/81 78/107/81
f 72/105/83 81/117/83 82/110/83
f 70/95/84 69/94/84 78/107/84
f 66/89/85 75/109/85 76/112/85
f 74/99/86 73/91/86 82/110/86
f 70/95/87 79/111/87 80/114/87
f 68/103/88 67/96/88 76/112/88
f 71/100/90 80/114/90 81/117/90
f 80/114/92 89/15/92 90/4/92
f 78/107/93 77/115/93 86/16/93
f 81/117/95 90/4/95 91/6/95
f 79/111/96 78/107/96 87/7/96
f 75/109/97 84/1/97 85/11/97
f 83/113/98 82/110/98 91/6/98
f 79/111/99 88/9/99 89/15/99
f 77/115/100 76/112/100 85/11/100
